<svg width="56.000000" height="56.000000" viewBox="0 0 56 56" fill="none" xmlns="http://www.w3.org/2000/svg" xmlns:xlink="http://www.w3.org/1999/xlink">
	<desc>
			Created with Pixso.
	</desc>
	<defs>
		<clipPath id="clip1_244">
			<rect id="IMAGE" width="56.000000" height="56.000000" fill="white" fill-opacity="0"/>
		</clipPath>
	</defs>
	<g clip-path="url(#clip1_244)">
		<path id="Vector" d="M30.33 28C30.33 26.71 29.28 25.66 27.99 25.66C26.71 25.66 25.66 26.71 25.66 28C25.66 29.28 26.71 30.33 27.99 30.33C29.28 30.33 30.33 29.28 30.33 28Z" stroke="#D8D8EB" stroke-opacity="1.000000" stroke-width="3.000000" stroke-linejoin="round"/>
		<path id="Vector" d="M39.66 28C39.66 21.55 34.44 16.33 28 16.33C21.55 16.33 16.33 21.55 16.33 28C16.33 34.44 21.55 39.66 28 39.66C34.44 39.66 39.66 34.44 39.66 28Z" stroke="#D8D8EB" stroke-opacity="1.000000" stroke-width="3.000000" stroke-linejoin="round"/>
		<path id="Vector" d="M49 28C49 16.4 39.59 7 28 7C16.4 7 7 16.4 7 28C7 39.59 16.4 49 28 49C39.59 49 49 39.59 49 28Z" stroke="#D8D8EB" stroke-opacity="1.000000" stroke-width="3.000000" stroke-linejoin="round"/>
	</g>
</svg>
