<svg width="64.000000" height="64.000000" viewBox="0 0 64 64" fill="none" xmlns="http://www.w3.org/2000/svg" xmlns:xlink="http://www.w3.org/1999/xlink">
	<desc>
			Created with Pixso.
	</desc>
	<defs>
		<clipPath id="clip1_67">
			<rect id="IMAGE" width="64.000000" height="64.000000" fill="white" fill-opacity="0"/>
		</clipPath>
	</defs>
	<g clip-path="url(#clip1_67)">
		<path id="Vector" d="M32 0C49.67 0 64 14.32 64 32C64 49.67 49.67 64 32 64C14.32 64 0 49.67 0 32C0 14.32 14.32 0 32 0Z" fill="#D8D8EB" fill-opacity="0.200000" fill-rule="evenodd"/>
		<path id="Vector" d="M25.33 47L38.66 47" stroke="#D8D8EB" stroke-opacity="1.000000" stroke-width="3.333330" stroke-linejoin="round" stroke-linecap="round"/>
		<path id="Vector" d="M32 40.33L32 47" stroke="#D8D8EB" stroke-opacity="1.000000" stroke-width="3.333330" stroke-linejoin="round" stroke-linecap="round"/>
		<path id="Vector" d="M23.66 18.66L40.33 18.66" stroke="#D8D8EB" stroke-opacity="1.000000" stroke-width="3.333330" stroke-linejoin="round" stroke-linecap="round"/>
		<path id="Vector" d="M40.33 18.66L40.33 32C40.33 34.21 39.45 36.32 37.89 37.89C36.32 39.45 34.2 40.33 31.99 40.33C29.78 40.33 27.66 39.45 26.1 37.89C24.54 36.32 23.66 34.21 23.66 32L23.66 18.66" stroke="#D8D8EB" stroke-opacity="1.000000" stroke-width="3.333330" stroke-linejoin="round" stroke-linecap="round"/>
		<path id="Vector" d="M23.66 27C23.66 25.15 22.17 23.66 20.33 23.66C18.49 23.66 17 25.15 17 27C17 28.84 18.49 30.33 20.33 30.33C22.17 30.33 23.66 28.84 23.66 27Z" stroke="#D8D8EB" stroke-opacity="1.000000" stroke-width="3.333330" stroke-linejoin="round"/>
		<path id="Vector" d="M47 27C47 25.15 45.5 23.66 43.66 23.66C41.82 23.66 40.33 25.15 40.33 27C40.33 28.84 41.82 30.33 43.66 30.33C45.5 30.33 47 28.84 47 27Z" stroke="#D8D8EB" stroke-opacity="1.000000" stroke-width="3.333330" stroke-linejoin="round"/>
	</g>
</svg>
