<svg width="24.000000" height="24.000000" viewBox="0 0 24 24" fill="none" xmlns="http://www.w3.org/2000/svg" xmlns:xlink="http://www.w3.org/1999/xlink">
	<desc>
			Created with Pixso.
	</desc>
	<defs>
		<clipPath id="clip1_55">
			<rect id="IMAGE" width="24.000000" height="24.000000" fill="white" fill-opacity="0"/>
		</clipPath>
		<clipPath id="clip1_58">
			<rect id="IMAGE" width="24.000000" height="24.000000" fill="white" fill-opacity="0"/>
		</clipPath>
	</defs>
	<g clip-path="url(#clip1_55)">
		<path id="Vector" d="M5 5C3.89 5 3 5.89 3 7L3 17C3 18.1 3.89 19 5 19L19 19C20.1 19 21 18.1 21 17L21 7C21 5.89 20.1 5 19 5L5 5Z" stroke="#FFFFFF" stroke-opacity="1.000000" stroke-width="2.000000" stroke-linejoin="round"/>
		<path id="Vector" d="M3 7L12 13L21 7" stroke="#FFFFFF" stroke-opacity="1.000000" stroke-width="2.000000" stroke-linejoin="round" stroke-linecap="round"/>
	</g>
	<g clip-path="url(#clip1_58)">
		<path id="Vector" d="M5 5C3.89 5 3 5.89 3 7L3 17C3 18.1 3.89 19 5 19L19 19C20.1 19 21 18.1 21 17L21 7C21 5.89 20.1 5 19 5L5 5Z" stroke="#010032" stroke-opacity="1.000000" stroke-width="2.000000" stroke-linejoin="round"/>
		<path id="Vector" d="M3 7L12 13L21 7" stroke="#010032" stroke-opacity="1.000000" stroke-width="2.000000" stroke-linejoin="round" stroke-linecap="round"/>
	</g>
</svg>
