<svg width="152.000000" height="32.000000" viewBox="0 0 152 32" fill="none" xmlns="http://www.w3.org/2000/svg" xmlns:xlink="http://www.w3.org/1999/xlink">
	<desc>
			Created with Pixso.
	</desc>
	<defs>
		<clipPath id="clip1_7">
			<rect id="IMAGE" width="152.000000" height="32.000000" fill="white" fill-opacity="0"/>
		</clipPath>
	</defs>
	<g clip-path="url(#clip1_7)">
		<path id="Vector" d="M59.75 24.89L57.24 13L59.79 13L62.32 23.9L61.74 23.93L63.31 13L66.94 13L64.54 24.89L59.75 24.89ZM51.39 24.89L48.99 13L52.62 13L54.19 23.93L53.62 23.9L56.13 13L58.68 13L56.19 24.89L51.39 24.89Z" fill="#FFFFFF" fill-opacity="1.000000" fill-rule="nonzero"/>
		<path id="Vector" d="M68.87 19.75L68.87 17.46L76.84 17.46L76.5 18.04C76.5 17.98 76.5 17.92 76.5 17.87C76.5 17.81 76.5 17.76 76.5 17.7C76.5 17.28 76.39 16.87 76.19 16.48C75.99 16.09 75.67 15.77 75.24 15.52C74.82 15.27 74.27 15.14 73.61 15.14C72.95 15.14 72.37 15.28 71.89 15.56C71.41 15.84 71.05 16.24 70.79 16.76C70.54 17.29 70.42 17.92 70.42 18.66C70.42 19.42 70.54 20.07 70.78 20.62C71.03 21.15 71.4 21.57 71.88 21.86C72.37 22.15 72.98 22.3 73.7 22.3C74.17 22.3 74.57 22.25 74.91 22.17C75.25 22.08 75.53 21.97 75.74 21.84C75.96 21.7 76.12 21.55 76.24 21.39C76.35 21.22 76.42 21.06 76.44 20.91L79.9 20.91C79.86 21.41 79.69 21.9 79.38 22.39C79.08 22.86 78.66 23.3 78.13 23.68C77.59 24.07 76.94 24.37 76.17 24.59C75.41 24.82 74.53 24.93 73.55 24.93C72.23 24.93 71.07 24.67 70.08 24.14C69.09 23.61 68.32 22.89 67.78 21.96C67.24 21.03 66.97 19.95 66.97 18.73C66.97 17.5 67.24 16.42 67.79 15.5C68.35 14.56 69.12 13.84 70.11 13.32C71.11 12.8 72.26 12.54 73.56 12.54C74.9 12.54 76.06 12.8 77.03 13.33C78 13.86 78.75 14.59 79.28 15.54C79.81 16.48 80.07 17.58 80.07 18.83C80.07 19.02 80.07 19.2 80.06 19.37C80.05 19.54 80.04 19.67 80.03 19.75L68.87 19.75Z" fill="#FFFFFF" fill-opacity="1.000000" fill-rule="nonzero"/>
		<path id="Vector" d="M89.5 24.92C88.55 24.92 87.68 24.67 86.89 24.17C86.09 23.67 85.46 22.99 84.98 22.14C84.51 21.28 84.27 20.32 84.27 19.25C84.27 19.22 84.27 19.19 84.27 19.17C84.27 19.14 84.27 19.11 84.27 19.07L85.79 19.04C85.79 19.06 85.79 19.08 85.79 19.1C85.79 19.13 85.79 19.15 85.79 19.17C85.79 19.72 85.92 20.21 86.19 20.63C86.47 21.04 86.82 21.35 87.25 21.58C87.68 21.8 88.13 21.91 88.59 21.91C89.36 21.91 90.03 21.65 90.6 21.13C91.17 20.6 91.46 19.78 91.46 18.66C91.46 17.54 91.18 16.72 90.61 16.21C90.04 15.7 89.37 15.44 88.59 15.44C88.13 15.44 87.68 15.55 87.25 15.78C86.82 15.99 86.47 16.3 86.19 16.71C85.92 17.11 85.79 17.59 85.79 18.15L84.27 18.06C84.27 16.99 84.51 16.04 84.98 15.22C85.46 14.39 86.09 13.74 86.89 13.27C87.68 12.79 88.55 12.55 89.5 12.55C90.47 12.55 91.38 12.79 92.23 13.26C93.07 13.73 93.76 14.42 94.28 15.33C94.81 16.24 95.07 17.35 95.07 18.66C95.07 20.02 94.81 21.17 94.3 22.11C93.79 23.03 93.11 23.73 92.26 24.21C91.42 24.68 90.5 24.92 89.5 24.92ZM82.27 24.66L82.27 7.15L85.79 7.15L85.79 24.66L82.27 24.66Z" fill="#FFFFFF" fill-opacity="1.000000" fill-rule="nonzero"/>
		<path id="Vector" d="M99.19 25C98.67 25 98.23 24.82 97.87 24.46C97.51 24.1 97.32 23.66 97.32 23.15C97.32 22.64 97.51 22.21 97.87 21.85C98.23 21.49 98.67 21.31 99.19 21.31C99.71 21.31 100.14 21.49 100.51 21.85C100.87 22.21 101.05 22.64 101.05 23.15C101.05 23.66 100.87 24.1 100.51 24.46C100.14 24.82 99.71 25 99.19 25Z" fill="#FFFFFF" fill-opacity="1.000000" fill-rule="nonzero"/>
		<path id="Vector" d="M104.18 24.66L104.18 15.45L101.68 15.45L101.68 12.76L104.18 12.76L104.18 11.95C104.18 11.15 104.28 10.48 104.5 9.92C104.71 9.35 105.01 8.88 105.38 8.51C105.75 8.13 106.16 7.83 106.62 7.61C107.09 7.39 107.57 7.23 108.06 7.14C108.56 7.04 109.04 7 109.51 7C110.01 7 110.38 7.02 110.62 7.08C110.87 7.14 111.03 7.18 111.12 7.22L111.12 9.92C111.03 9.89 110.86 9.85 110.63 9.82C110.4 9.78 110.16 9.76 109.89 9.76C109.46 9.76 109.09 9.82 108.81 9.93C108.52 10.04 108.29 10.21 108.13 10.42C107.96 10.63 107.85 10.88 107.78 11.17C107.71 11.46 107.68 11.77 107.68 12.1L107.68 12.76L110.9 12.76L110.9 15.45L107.68 15.45L107.68 24.66L104.18 24.66Z" fill="#FFFFFF" fill-opacity="1.000000" fill-rule="nonzero"/>
		<path id="Vector" d="M118.27 24.92C116.97 24.92 115.83 24.65 114.84 24.12C113.85 23.59 113.08 22.86 112.52 21.94C111.97 21 111.69 19.93 111.69 18.71C111.69 17.5 111.97 16.43 112.52 15.51C113.08 14.57 113.85 13.85 114.84 13.33C115.83 12.81 116.97 12.55 118.27 12.55C119.57 12.55 120.71 12.81 121.7 13.33C122.69 13.85 123.46 14.57 124.01 15.51C124.57 16.43 124.85 17.5 124.85 18.71C124.85 19.93 124.57 21 124.01 21.94C123.46 22.86 122.69 23.59 121.7 24.12C120.71 24.65 119.57 24.92 118.27 24.92ZM118.27 22.16C118.88 22.16 119.41 22.02 119.87 21.74C120.32 21.45 120.67 21.05 120.92 20.54C121.17 20.01 121.29 19.41 121.29 18.71C121.29 18.02 121.17 17.42 120.92 16.91C120.67 16.39 120.32 16 119.87 15.72C119.41 15.44 118.88 15.31 118.27 15.31C117.67 15.31 117.13 15.44 116.67 15.72C116.22 16 115.87 16.39 115.62 16.91C115.37 17.42 115.25 18.02 115.25 18.71C115.25 19.41 115.37 20.01 115.62 20.54C115.87 21.05 116.22 21.45 116.67 21.74C117.13 22.02 117.67 22.16 118.27 22.16Z" fill="#FFFFFF" fill-opacity="1.000000" fill-rule="nonzero"/>
		<path id="Vector" d="M130.67 7.15L130.67 24.66L127.21 24.66L127.21 7.15L130.67 7.15Z" fill="#FFFFFF" fill-opacity="1.000000" fill-rule="nonzero"/>
		<path id="Vector" d="M133.34 24.66L133.34 12.76L136.81 12.76L136.81 24.66L133.34 24.66ZM135.07 10.83C134.52 10.83 134.05 10.68 133.64 10.4C133.24 10.12 133.04 9.72 133.04 9.2C133.04 8.68 133.24 8.28 133.64 7.99C134.05 7.71 134.52 7.57 135.07 7.57C135.62 7.57 136.09 7.71 136.49 7.99C136.9 8.28 137.11 8.68 137.11 9.2C137.11 9.72 136.9 10.13 136.49 10.41C136.09 10.69 135.62 10.83 135.07 10.83Z" fill="#FFFFFF" fill-opacity="1.000000" fill-rule="nonzero"/>
		<path id="Vector" d="M145.42 24.92C144.12 24.92 142.98 24.65 141.99 24.12C141 23.59 140.23 22.86 139.67 21.94C139.12 21 138.84 19.93 138.84 18.71C138.84 17.5 139.12 16.43 139.67 15.51C140.23 14.57 141 13.85 141.99 13.33C142.98 12.81 144.12 12.55 145.42 12.55C146.72 12.55 147.86 12.81 148.85 13.33C149.84 13.85 150.61 14.57 151.16 15.51C151.72 16.43 152 17.5 152 18.71C152 19.93 151.72 21 151.16 21.94C150.61 22.86 149.84 23.59 148.85 24.12C147.86 24.65 146.72 24.92 145.42 24.92ZM145.42 22.16C146.03 22.16 146.56 22.02 147.01 21.74C147.47 21.45 147.82 21.05 148.07 20.54C148.32 20.01 148.44 19.41 148.44 18.71C148.44 18.02 148.32 17.42 148.07 16.91C147.82 16.39 147.47 16 147.01 15.72C146.56 15.44 146.03 15.31 145.42 15.31C144.81 15.31 144.28 15.44 143.82 15.72C143.37 16 143.02 16.39 142.77 16.91C142.52 17.42 142.4 18.02 142.4 18.71C142.4 19.41 142.52 20.01 142.77 20.54C143.02 21.05 143.37 21.45 143.82 21.74C144.28 22.02 144.81 22.16 145.42 22.16Z" fill="#FFFFFF" fill-opacity="1.000000" fill-rule="nonzero"/>
		<path id="Vector" d="M2.66 24L5.33 24C6.8 24 8 22.8 8 21.33L8 18.66C8 17.19 6.8 16 5.33 16L2.66 16C1.19 16 7.62e-6 17.19 7.62e-6 18.66L7.62e-6 21.33C7.62e-6 22.8 1.19 24 2.66 24Z" fill="#D8D8EB" fill-opacity="1.000000" fill-rule="nonzero"/>
		<path id="Vector" d="M10.66 16L13.33 16C14.8 16 16 14.8 16 13.33L16 10.66C16 9.19 14.8 8 13.33 8L10.66 8C9.19 8 8 9.19 8 10.66L8 13.33C8 14.8 9.19 16 10.66 16Z" fill="#D8D8EB" fill-opacity="1.000000" fill-rule="nonzero"/>
		<path id="Vector" d="M21.33 24L18.66 24C17.19 24 16 22.8 16 21.33L16 18.66C16 17.19 17.19 16 18.66 16L21.33 16C22.8 16 24 17.19 24 18.66L24 21.33C24 22.8 22.8 24 21.33 24Z" fill="#D8D8EB" fill-opacity="1.000000" fill-rule="nonzero"/>
		<path id="Vector" d="M13.33 24L10.66 24C9.19 24 8 25.19 8 26.66L8 29.33C8 30.8 9.19 32 10.66 32L13.33 32C14.8 32 16 30.8 16 29.33L16 26.66C16 25.19 14.8 24 13.33 24Z" fill="#D8D8EB" fill-opacity="1.000000" fill-rule="nonzero"/>
		<path id="Vector" d="M18.66 8L21.33 8C22.8 8 24 6.8 24 5.33L24 2.66C24 1.19 22.8 0 21.33 0L18.66 0C17.19 0 16 1.19 16 2.66L16 5.33C16 6.8 17.19 8 18.66 8Z" fill="#D8D8EB" fill-opacity="1.000000" fill-rule="nonzero"/>
		<path id="Vector" d="M29.33 16L26.66 16C25.19 16 24 14.8 24 13.33L24 10.66C24 9.19 25.19 8 26.66 8L29.33 8C30.8 8 32 9.19 32 10.66L32 13.33C32 14.8 30.8 16 29.33 16Z" fill="#D8D8EB" fill-opacity="1.000000" fill-rule="nonzero"/>
		<path id="Vector" d="M5.33 16C6.8 16 8 14.8 8 13.33C8 14.8 9.19 16 10.66 16C9.19 16 8 17.19 8 18.66C8 17.19 6.8 16 5.33 16Z" fill="#D8D8EB" fill-opacity="1.000000" fill-rule="nonzero"/>
		<path id="Vector" d="M13.33 8C14.8 8 16 6.8 16 5.33C16 6.8 17.19 8 18.66 8C17.19 8 16 9.19 16 10.66C16 9.19 14.8 8 13.33 8Z" fill="#D8D8EB" fill-opacity="1.000000" fill-rule="nonzero"/>
		<path id="Vector" d="M13.33 24C14.8 24 16 22.8 16 21.33C16 22.8 17.19 24 18.66 24C17.19 24 16 25.19 16 26.66C16 25.19 14.8 24 13.33 24Z" fill="#D8D8EB" fill-opacity="1.000000" fill-rule="nonzero"/>
		<path id="Vector" d="M21.33 16C22.8 16 24 14.8 24 13.33C24 14.8 25.19 16 26.66 16C25.19 16 24 17.19 24 18.66C24 17.19 22.8 16 21.33 16Z" fill="#D8D8EB" fill-opacity="1.000000" fill-rule="nonzero"/>
		<path id="Vector" d="M13.33 16C14.8 16 16 14.8 16 13.33C16 14.8 17.19 16 18.66 16C17.19 16 16 17.19 16 18.66C16 17.19 14.8 16 13.33 16Z" fill="#D8D8EB" fill-opacity="1.000000" fill-rule="nonzero"/>
		<path id="Vector" d="M21.33 8C22.8 8 24 6.8 24 5.33C24 6.8 25.19 8 26.66 8C25.19 8 24 9.19 24 10.66C24 9.19 22.8 8 21.33 8Z" fill="#D8D8EB" fill-opacity="1.000000" fill-rule="nonzero"/>
		<path id="Vector" d="M5.33 24C6.8 24 8 22.8 8 21.33C8 22.8 9.19 24 10.66 24C9.19 24 8 25.19 8 26.66C8 25.19 6.8 24 5.33 24Z" fill="#D8D8EB" fill-opacity="1.000000" fill-rule="nonzero"/>
		<path id="Vector" d="M8 0L24 0C28.41 0 32 3.58 32 8L32 24C32 28.41 28.41 32 24 32L8 32C3.58 32 7.62e-6 28.41 7.62e-6 24L7.62e-6 8C7.62e-6 3.58 3.58 0 8 0Z" fill="#D8D8EB" fill-opacity="1.000000" fill-rule="evenodd"/>
		<path id="Vector" d="M22 16C25.31 16 28 18.68 28 22C28 25.31 25.31 28 22 28C18.68 28 16 25.31 16 22C16 18.68 18.68 16 22 16Z" fill="#010032" fill-opacity="1.000000" fill-rule="evenodd"/>
	</g>
</svg>
