<svg width="168.000000" height="36.000000" viewBox="0 0 168 36" fill="none" xmlns="http://www.w3.org/2000/svg" xmlns:xlink="http://www.w3.org/1999/xlink">
	<desc>
			Created with Pixso.
	</desc>
	<defs>
		<clipPath id="clip1_133">
			<rect id="IMAGE" width="168.000000" height="36.000000" fill="white" fill-opacity="0"/>
		</clipPath>
	</defs>
	<g clip-path="url(#clip1_133)">
		<path id="Vector" d="M26.9 16.04C26.44 16.5 26.1 17.05 25.88 17.66C25.66 18.27 25.58 18.91 25.64 19.55L25.62 19.53C25.69 20.29 25.58 21.05 25.32 21.76C25.06 22.47 24.65 23.12 24.11 23.66C23.58 24.19 22.93 24.61 22.22 24.87C21.51 25.13 20.74 25.23 19.99 25.17L20.01 25.19C19.11 25.1 18.2 25.3 17.41 25.75C16.62 26.2 15.99 26.88 15.61 27.71C15.22 28.53 15.1 29.45 15.25 30.34C15.41 31.24 15.84 32.06 16.48 32.7C17.12 33.35 17.95 33.77 18.84 33.93C19.74 34.09 20.66 33.96 21.48 33.58C22.3 33.19 22.98 32.56 23.43 31.77C23.88 30.98 24.08 30.07 24 29.17L24.02 29.19C23.95 28.44 24.06 27.67 24.32 26.96C24.58 26.25 24.99 25.6 25.53 25.07C26.06 24.53 26.71 24.12 27.42 23.86C28.13 23.6 28.9 23.49 29.65 23.56L29.63 23.54C30.37 23.6 31.11 23.48 31.79 23.18C32.47 22.89 33.06 22.42 33.51 21.84C33.97 21.25 34.26 20.56 34.38 19.82C34.49 19.09 34.42 18.34 34.16 17.64C33.91 16.95 33.48 16.33 32.93 15.84C32.37 15.35 31.7 15.01 30.97 14.85C30.25 14.69 29.5 14.71 28.78 14.92C28.07 15.13 27.43 15.51 26.9 16.04L26.9 16.04Z" fill="#010032" fill-opacity="1.000000" fill-rule="nonzero"/>
		<path id="Vector" d="M18.04 22.36L18.02 22.34C18.66 22.4 19.31 22.32 19.92 22.11C20.53 21.89 21.08 21.54 21.54 21.08C22 20.63 22.35 20.08 22.56 19.47C22.78 18.86 22.86 18.21 22.79 17.57L22.82 17.59C22.75 16.83 22.86 16.07 23.12 15.36C23.38 14.65 23.79 14 24.33 13.46C24.86 12.93 25.51 12.52 26.22 12.26C26.93 11.99 27.69 11.89 28.45 11.96L28.43 11.93C29.33 12.02 30.24 11.82 31.03 11.37C31.82 10.92 32.45 10.24 32.83 9.42C33.22 8.6 33.34 7.68 33.19 6.78C33.03 5.89 32.6 5.06 31.96 4.42C31.32 3.78 30.49 3.35 29.6 3.19C28.7 3.04 27.78 3.16 26.96 3.55C26.14 3.93 25.46 4.56 25.01 5.35C24.56 6.14 24.36 7.05 24.45 7.95L24.42 7.93C24.49 8.69 24.39 9.45 24.13 10.16C23.87 10.87 23.45 11.52 22.92 12.06C22.38 12.59 21.73 13 21.02 13.27C20.31 13.53 19.55 13.63 18.79 13.56L18.81 13.59C18.17 13.52 17.52 13.6 16.91 13.82C16.31 14.03 15.75 14.38 15.3 14.84C14.84 15.3 14.49 15.85 14.27 16.46C14.06 17.06 13.98 17.71 14.04 18.36L14.02 18.33C14.08 19.09 13.98 19.85 13.72 20.56C13.46 21.27 13.05 21.92 12.51 22.46C11.97 22.99 11.33 23.41 10.61 23.67C9.9 23.93 9.14 24.03 8.39 23.97L8.41 23.99C7.5 23.9 6.6 24.1 5.81 24.55C5.02 25 4.39 25.68 4 26.5C3.61 27.33 3.49 28.25 3.65 29.14C3.8 30.04 4.23 30.86 4.87 31.5C5.52 32.15 6.34 32.57 7.24 32.73C8.13 32.89 9.05 32.76 9.87 32.38C10.69 31.99 11.38 31.36 11.83 30.57C12.28 29.78 12.47 28.87 12.39 27.97L12.41 27.99C12.35 27.24 12.45 26.47 12.71 25.76C12.97 25.05 13.38 24.4 13.92 23.87C14.46 23.33 15.1 22.92 15.82 22.66C16.53 22.4 17.29 22.29 18.04 22.36Z" fill="#010032" fill-opacity="1.000000" fill-rule="nonzero"/>
		<path id="Vector" d="M10 19.95C10.46 19.49 10.81 18.94 11.02 18.33C11.24 17.73 11.32 17.08 11.26 16.44L11.28 16.46C11.22 15.7 11.32 14.94 11.58 14.23C11.84 13.51 12.25 12.87 12.79 12.33C13.33 11.79 13.97 11.38 14.69 11.12C15.4 10.86 16.16 10.76 16.91 10.82L16.89 10.8C17.8 10.89 18.7 10.69 19.49 10.24C20.28 9.79 20.91 9.11 21.3 8.29C21.68 7.46 21.81 6.54 21.65 5.65C21.49 4.76 21.07 3.93 20.42 3.29C19.78 2.65 18.96 2.22 18.06 2.06C17.17 1.91 16.25 2.03 15.43 2.42C14.6 2.8 13.92 3.43 13.47 4.22C13.02 5.01 12.83 5.92 12.91 6.82L12.89 6.8C12.95 7.55 12.85 8.32 12.59 9.03C12.33 9.74 11.92 10.39 11.38 10.92C10.84 11.46 10.2 11.87 9.48 12.13C8.77 12.39 8.01 12.5 7.26 12.43L7.28 12.45C6.54 12.39 5.8 12.51 5.12 12.81C4.44 13.1 3.84 13.57 3.39 14.16C2.94 14.74 2.64 15.44 2.53 16.17C2.42 16.9 2.49 17.65 2.74 18.35C3 19.04 3.42 19.67 3.98 20.15C4.54 20.64 5.21 20.98 5.93 21.14C6.66 21.3 7.41 21.28 8.12 21.07C8.83 20.86 9.48 20.48 10.01 19.95L10 19.95Z" fill="#010032" fill-opacity="1.000000" fill-rule="nonzero"/>
		<path id="Vector" d="M47.18 7.98L50.74 7.98L50.74 25.32L47.18 25.32L47.18 7.98Z" fill="#010032" fill-opacity="1.000000" fill-rule="nonzero"/>
		<path id="Vector" d="M52.76 19.39C52.75 18.14 53.12 16.92 53.81 15.88C54.5 14.84 55.48 14.03 56.63 13.55C57.78 13.07 59.04 12.94 60.27 13.18C61.49 13.42 62.61 14.02 63.5 14.9C64.38 15.78 64.98 16.9 65.23 18.12C65.47 19.35 65.35 20.61 64.87 21.76C64.4 22.92 63.59 23.9 62.56 24.59C61.52 25.29 60.3 25.66 59.05 25.66C58.23 25.67 57.41 25.51 56.64 25.2C55.87 24.89 55.18 24.43 54.59 23.84C54 23.26 53.54 22.56 53.23 21.8C52.91 21.03 52.75 20.21 52.76 19.39ZM61.79 19.39C61.77 18.85 61.6 18.33 61.29 17.89C60.98 17.45 60.55 17.11 60.05 16.91C59.55 16.72 59 16.68 58.47 16.79C57.95 16.9 57.47 17.17 57.09 17.56C56.72 17.94 56.47 18.43 56.37 18.96C56.27 19.48 56.33 20.03 56.54 20.53C56.75 21.02 57.1 21.44 57.54 21.74C57.99 22.04 58.52 22.2 59.05 22.2C59.42 22.2 59.79 22.14 60.13 22C60.47 21.86 60.78 21.65 61.04 21.39C61.29 21.13 61.49 20.81 61.62 20.47C61.75 20.12 61.81 19.75 61.79 19.39Z" fill="#010032" fill-opacity="1.000000" fill-rule="nonzero"/>
		<path id="Vector" d="M79.56 13.45L79.56 24.73C79.56 28.72 76.44 30.4 73.28 30.4C72.17 30.49 71.06 30.26 70.06 29.75C69.07 29.25 68.24 28.47 67.65 27.52L70.69 25.77C70.94 26.26 71.33 26.67 71.81 26.94C72.3 27.21 72.85 27.32 73.4 27.26C73.75 27.31 74.11 27.28 74.45 27.17C74.79 27.06 75.1 26.88 75.35 26.64C75.61 26.39 75.81 26.09 75.94 25.76C76.07 25.43 76.12 25.07 76.09 24.72L76.09 23.64C75.67 24.15 75.14 24.55 74.54 24.82C73.93 25.09 73.28 25.21 72.62 25.18C71.05 25.13 69.56 24.47 68.47 23.35C67.38 22.22 66.77 20.71 66.77 19.15C66.77 17.58 67.38 16.07 68.47 14.94C69.56 13.82 71.05 13.16 72.62 13.11C73.28 13.08 73.93 13.2 74.54 13.47C75.14 13.74 75.67 14.14 76.09 14.66L76.09 13.44L79.56 13.45ZM76.09 19.15C76.11 18.57 75.96 18 75.66 17.52C75.36 17.03 74.92 16.64 74.39 16.4C73.87 16.17 73.29 16.09 72.72 16.19C72.15 16.29 71.63 16.55 71.22 16.95C70.8 17.35 70.51 17.86 70.39 18.42C70.27 18.99 70.32 19.57 70.54 20.1C70.75 20.64 71.12 21.09 71.6 21.41C72.08 21.74 72.64 21.91 73.21 21.91C73.59 21.93 73.96 21.88 74.32 21.75C74.67 21.62 74.99 21.42 75.26 21.16C75.53 20.9 75.75 20.59 75.89 20.24C76.03 19.9 76.1 19.52 76.09 19.15Z" fill="#010032" fill-opacity="1.000000" fill-rule="nonzero"/>
		<path id="Vector" d="M81.57 19.39C81.57 18.14 81.93 16.92 82.62 15.88C83.31 14.84 84.29 14.03 85.44 13.55C86.59 13.07 87.86 12.94 89.08 13.18C90.31 13.42 91.43 14.02 92.31 14.9C93.2 15.78 93.8 16.9 94.04 18.12C94.29 19.35 94.16 20.61 93.69 21.76C93.21 22.92 92.41 23.9 91.37 24.59C90.33 25.29 89.12 25.66 87.87 25.66C87.04 25.67 86.22 25.51 85.45 25.2C84.69 24.89 83.99 24.43 83.41 23.84C82.82 23.26 82.36 22.56 82.04 21.8C81.73 21.03 81.57 20.21 81.57 19.39ZM90.6 19.39C90.59 18.85 90.41 18.33 90.1 17.89C89.8 17.45 89.36 17.11 88.86 16.91C88.36 16.72 87.81 16.68 87.29 16.79C86.76 16.9 86.28 17.17 85.91 17.56C85.54 17.94 85.28 18.43 85.18 18.96C85.08 19.48 85.14 20.03 85.35 20.53C85.56 21.02 85.91 21.44 86.36 21.74C86.81 22.04 87.33 22.2 87.87 22.2C88.24 22.2 88.6 22.14 88.94 22C89.29 21.86 89.59 21.65 89.85 21.39C90.11 21.13 90.31 20.81 90.44 20.47C90.57 20.12 90.62 19.75 90.6 19.39Z" fill="#010032" fill-opacity="1.000000" fill-rule="nonzero"/>
		<path id="Vector" d="M95.83 10.26C95.83 9.84 95.95 9.43 96.19 9.07C96.42 8.72 96.76 8.45 97.15 8.29C97.54 8.12 97.97 8.08 98.38 8.16C98.8 8.25 99.18 8.45 99.48 8.75C99.78 9.05 99.98 9.43 100.06 9.85C100.15 10.26 100.11 10.69 99.94 11.08C99.78 11.47 99.51 11.81 99.15 12.04C98.8 12.28 98.39 12.4 97.97 12.4C97.4 12.39 96.86 12.17 96.46 11.77C96.06 11.37 95.83 10.83 95.83 10.26ZM96.19 13.45L99.75 13.45L99.75 25.33L96.18 25.33L96.19 13.45Z" fill="#010032" fill-opacity="1.000000" fill-rule="nonzero"/>
		<path id="Vector" d="M115.14 19.39C115.18 20.17 115.07 20.96 114.81 21.7C114.54 22.44 114.14 23.12 113.61 23.7C113.08 24.28 112.44 24.76 111.73 25.09C111.02 25.43 110.25 25.62 109.46 25.66C108.8 25.69 108.14 25.58 107.53 25.33C106.92 25.08 106.37 24.7 105.93 24.21L105.93 30.08L102.36 30.08L102.36 13.45L105.93 13.45L105.93 14.56C106.37 14.07 106.92 13.69 107.53 13.44C108.14 13.19 108.8 13.08 109.46 13.11C110.25 13.15 111.02 13.34 111.73 13.68C112.44 14.01 113.08 14.49 113.61 15.07C114.14 15.65 114.54 16.33 114.81 17.07C115.07 17.81 115.18 18.6 115.14 19.39ZM111.58 19.39C111.56 18.83 111.39 18.29 111.07 17.83C110.75 17.38 110.3 17.03 109.79 16.82C109.27 16.62 108.7 16.58 108.16 16.69C107.61 16.81 107.12 17.08 106.73 17.48C106.34 17.88 106.08 18.38 105.97 18.93C105.87 19.48 105.93 20.04 106.15 20.56C106.36 21.07 106.73 21.5 107.19 21.81C107.65 22.12 108.2 22.28 108.75 22.28C109.14 22.3 109.52 22.24 109.87 22.1C110.23 21.96 110.55 21.74 110.81 21.47C111.08 21.19 111.29 20.87 111.42 20.51C111.55 20.15 111.61 19.77 111.58 19.39Z" fill="#010032" fill-opacity="1.000000" fill-rule="nonzero"/>
		<path id="Vector" d="M126.14 21.76C126.14 24.49 123.77 25.66 121.2 25.66C120.16 25.75 119.12 25.53 118.21 25.03C117.3 24.52 116.56 23.76 116.09 22.83L119.18 21.07C119.3 21.5 119.57 21.87 119.94 22.13C120.31 22.38 120.75 22.51 121.2 22.47C122.05 22.47 122.48 22.21 122.48 21.74C122.48 20.43 116.63 21.12 116.63 17.01C116.63 14.42 118.82 13.11 121.29 13.11C122.22 13.08 123.14 13.3 123.95 13.75C124.77 14.2 125.45 14.86 125.92 15.65L122.88 17.29C122.75 16.98 122.53 16.72 122.24 16.53C121.96 16.35 121.63 16.25 121.29 16.25C120.67 16.25 120.29 16.49 120.29 16.91C120.3 18.27 126.14 17.36 126.14 21.76Z" fill="#010032" fill-opacity="1.000000" fill-rule="nonzero"/>
		<path id="Vector" d="M139.16 13.45L139.16 25.33L135.6 25.33L135.6 24.21C135.18 24.7 134.66 25.09 134.07 25.34C133.48 25.59 132.84 25.7 132.2 25.66C129.8 25.66 127.76 23.95 127.76 20.74L127.76 13.45L131.32 13.45L131.32 20.22C131.29 20.5 131.33 20.79 131.42 21.05C131.51 21.32 131.66 21.57 131.86 21.78C132.05 21.98 132.29 22.14 132.56 22.24C132.82 22.35 133.11 22.39 133.39 22.38C134.7 22.38 135.6 21.62 135.6 19.93L135.6 13.45L139.16 13.45Z" fill="#010032" fill-opacity="1.000000" fill-rule="nonzero"/>
		<path id="Vector" d="M159.6 18.03L159.6 25.32L156.03 25.32L156.03 18.34C156.03 17.15 155.46 16.39 154.32 16.39C153.13 16.39 152.47 17.22 152.47 18.62L152.47 25.32L148.9 25.32L148.9 18.34C148.9 17.15 148.33 16.39 147.19 16.39C146.01 16.39 145.34 17.22 145.34 18.62L145.34 25.32L141.78 25.32L141.78 13.44L145.34 13.44L145.34 14.54C145.71 14.05 146.2 13.67 146.75 13.42C147.31 13.17 147.92 13.06 148.52 13.11C149.13 13.08 149.74 13.21 150.29 13.49C150.83 13.76 151.3 14.17 151.64 14.68C152.03 14.15 152.55 13.73 153.16 13.45C153.76 13.18 154.42 13.06 155.08 13.11C157.81 13.11 159.6 15.06 159.6 18.03Z" fill="#010032" fill-opacity="1.000000" fill-rule="nonzero"/>
		<path id="Vector" d="M162.61 13.37C164.07 13.37 165.26 12.19 165.26 10.73C165.26 9.27 164.07 8.08 162.61 8.08C161.15 8.08 159.96 9.27 159.96 10.73C159.96 12.19 161.15 13.37 162.61 13.37Z" fill="#010032" fill-opacity="1.000000" fill-rule="nonzero"/>
	</g>
</svg>
