<svg width="72.000000" height="10.000000" viewBox="0 0 72 10" fill="none" xmlns="http://www.w3.org/2000/svg" xmlns:xlink="http://www.w3.org/1999/xlink">
	<desc>
			Created with Pixso.
	</desc>
	<defs>
		<clipPath id="clip1_218">
			<rect id="IMAGE" width="72.000000" height="10.000000" fill="white" fill-opacity="0"/>
		</clipPath>
	</defs>
	<g clip-path="url(#clip1_218)">
		<path id="Vector" d="M-9 5C-3 -0.34 3 -0.34 9 5C15 10.33 21 10.33 27 5C33 -0.34 39 -0.34 45 5C51 10.33 57 10.33 63 5C69 -0.34 75 -0.34 81 5C87 10.33 93 10.33 99 5C105 -0.34 111 -0.34 117 5C123 10.33 129 10.33 135 5C141 -0.34 147 -0.34 153 5C159 10.33 165 10.33 171 5" stroke="#D8D8EB" stroke-opacity="1.000000" stroke-width="2.000000"/>
	</g>
</svg>
