<svg width="150.000000" height="40.000000" viewBox="0 0 150 40" fill="none" xmlns="http://www.w3.org/2000/svg" xmlns:xlink="http://www.w3.org/1999/xlink">
	<desc>
			Created with Pixso.
	</desc>
	<defs>
		<clipPath id="clip1_122">
			<rect id="IMAGE" width="150.000000" height="40.000000" fill="white" fill-opacity="0"/>
		</clipPath>
	</defs>
	<g clip-path="url(#clip1_122)">
		<path id="Vector" d="M50.94 28.8C50.26 28.84 49.59 28.64 49.04 28.25C48.81 28.08 48.62 27.85 48.5 27.59C48.37 27.33 48.31 27.04 48.33 26.75L48.33 16.16C48.32 16.12 48.32 16.07 48.34 16.03C48.35 15.98 48.38 15.95 48.41 15.91C48.44 15.88 48.48 15.86 48.52 15.84C48.57 15.83 48.61 15.82 48.65 15.83L50.56 15.83C50.78 15.83 50.88 15.94 50.88 16.16L50.88 25.93C50.88 26.37 51.08 26.58 51.47 26.58C51.64 26.59 51.81 26.57 51.97 26.53C52.2 26.53 52.33 26.59 52.34 26.8L52.51 28.23C52.52 28.27 52.51 28.31 52.5 28.36C52.5 28.4 52.48 28.44 52.45 28.47C52.43 28.5 52.39 28.53 52.36 28.55C52.32 28.57 52.28 28.58 52.23 28.58C51.82 28.72 51.38 28.8 50.94 28.8Z" fill="#010032" fill-opacity="1.000000" fill-rule="nonzero"/>
		<path id="Vector" d="M61.68 27.58C60.72 28.37 59.51 28.81 58.27 28.81C57.02 28.81 55.82 28.37 54.86 27.58C54.01 26.72 53.54 25.57 53.54 24.36C53.54 23.16 54.01 22 54.86 21.14C55.82 20.35 57.02 19.92 58.27 19.92C59.51 19.92 60.72 20.35 61.68 21.14C62.5 22.01 62.96 23.16 62.96 24.35C62.96 25.55 62.5 26.7 61.68 27.57L61.68 27.58ZM56.65 26.07C57.1 26.47 57.68 26.7 58.28 26.7C58.88 26.7 59.46 26.47 59.9 26.07C60.31 25.6 60.53 25.01 60.53 24.39C60.53 23.77 60.31 23.17 59.9 22.71C59.46 22.3 58.88 22.08 58.28 22.08C57.68 22.08 57.1 22.3 56.65 22.71C56.25 23.17 56.03 23.77 56.03 24.39C56.03 25.01 56.25 25.6 56.65 26.07Z" fill="#010032" fill-opacity="1.000000" fill-rule="nonzero"/>
		<path id="Vector" d="M73.47 20.21C73.69 20.21 73.79 20.32 73.79 20.54L73.79 28.73C73.81 29.28 73.71 29.84 73.49 30.34C73.27 30.85 72.94 31.3 72.53 31.67C71.61 32.46 70.43 32.87 69.22 32.81C68.13 32.85 67.06 32.55 66.14 31.95C65.75 31.7 65.42 31.36 65.16 30.97C64.91 30.57 64.73 30.13 64.65 29.67C64.65 29.44 64.65 29.34 64.96 29.34L66.87 29.34C66.95 29.34 67.03 29.37 67.1 29.41C67.16 29.46 67.21 29.52 67.24 29.6C67.37 29.95 67.62 30.24 67.94 30.41C68.33 30.62 68.77 30.72 69.21 30.71C69.48 30.72 69.74 30.68 70 30.59C70.25 30.5 70.48 30.36 70.68 30.18C70.86 29.99 71 29.77 71.09 29.52C71.18 29.28 71.22 29.02 71.21 28.75L71.21 28.03C70.53 28.54 69.7 28.8 68.85 28.78C68.25 28.8 67.66 28.7 67.11 28.49C66.55 28.27 66.05 27.95 65.62 27.53C64.8 26.68 64.34 25.54 64.34 24.35C64.34 23.17 64.8 22.03 65.62 21.18C66.05 20.77 66.56 20.44 67.11 20.23C67.66 20.02 68.25 19.92 68.85 19.94C69.72 19.92 70.57 20.2 71.27 20.73L71.27 20.55C71.26 20.51 71.27 20.46 71.28 20.42C71.29 20.38 71.32 20.34 71.35 20.31C71.38 20.28 71.42 20.25 71.46 20.24C71.5 20.22 71.54 20.21 71.59 20.22L73.47 20.21ZM69.06 26.74C69.36 26.75 69.65 26.7 69.92 26.58C70.18 26.46 70.43 26.29 70.62 26.07C71 25.58 71.2 24.98 71.2 24.35C71.2 23.73 71 23.13 70.62 22.64C70.43 22.42 70.19 22.25 69.92 22.14C69.65 22.02 69.36 21.97 69.07 21.98C68.78 21.97 68.48 22.02 68.21 22.14C67.94 22.26 67.69 22.43 67.49 22.65C67.08 23.12 66.86 23.74 66.88 24.37C66.86 24.99 67.08 25.6 67.48 26.07C67.68 26.29 67.93 26.46 68.2 26.58C68.47 26.7 68.77 26.75 69.06 26.74Z" fill="#010032" fill-opacity="1.000000" fill-rule="nonzero"/>
		<path id="Vector" d="M83.6 27.58C82.64 28.37 81.43 28.8 80.19 28.8C78.95 28.8 77.74 28.37 76.78 27.58C75.96 26.71 75.5 25.56 75.5 24.36C75.5 23.16 75.96 22.01 76.78 21.14C77.74 20.35 78.95 19.92 80.19 19.92C81.43 19.92 82.64 20.35 83.6 21.14C84.42 22.01 84.88 23.16 84.88 24.35C84.88 25.55 84.42 26.7 83.6 27.57L83.6 27.58ZM78.56 26.07C78.78 26.28 79.04 26.44 79.32 26.55C79.6 26.66 79.9 26.71 80.2 26.7C80.5 26.71 80.8 26.65 81.08 26.55C81.35 26.44 81.61 26.28 81.83 26.07C82.22 25.6 82.44 25 82.44 24.39C82.44 23.77 82.22 23.18 81.83 22.71C81.61 22.5 81.35 22.34 81.08 22.23C80.8 22.12 80.5 22.07 80.2 22.08C79.9 22.07 79.6 22.12 79.32 22.23C79.04 22.34 78.78 22.5 78.56 22.71C78.17 23.18 77.95 23.77 77.95 24.39C77.95 25 78.17 25.6 78.56 26.07Z" fill="#010032" fill-opacity="1.000000" fill-rule="nonzero"/>
		<path id="Vector" d="M88.98 18.26C88.68 18.53 88.3 18.67 87.9 18.67C87.5 18.67 87.11 18.53 86.81 18.26C86.68 18.13 86.57 17.98 86.49 17.81C86.42 17.63 86.38 17.45 86.38 17.26C86.38 17.07 86.42 16.88 86.49 16.71C86.57 16.54 86.68 16.38 86.81 16.25C87.12 15.99 87.5 15.85 87.9 15.85C88.3 15.85 88.68 15.99 88.98 16.25C89.12 16.38 89.23 16.54 89.3 16.71C89.38 16.88 89.41 17.07 89.41 17.26C89.41 17.45 89.38 17.63 89.3 17.81C89.23 17.98 89.12 18.13 88.98 18.26ZM89.22 28.8C88.55 28.83 87.88 28.64 87.32 28.25C87.1 28.08 86.91 27.85 86.79 27.59C86.67 27.33 86.61 27.04 86.62 26.75L86.62 20.54C86.61 20.49 86.62 20.45 86.63 20.4C86.65 20.36 86.67 20.32 86.7 20.29C86.74 20.26 86.77 20.23 86.82 20.22C86.86 20.21 86.9 20.2 86.95 20.21L88.86 20.21C89.07 20.21 89.18 20.32 89.18 20.54L89.18 25.93C89.18 26.37 89.37 26.58 89.76 26.58C89.93 26.59 90.1 26.57 90.27 26.53C90.49 26.53 90.62 26.59 90.63 26.8L90.8 28.23C90.81 28.27 90.81 28.31 90.8 28.36C90.79 28.4 90.77 28.44 90.75 28.47C90.72 28.5 90.69 28.53 90.65 28.55C90.61 28.57 90.57 28.58 90.53 28.58C90.11 28.72 89.67 28.8 89.22 28.8Z" fill="#010032" fill-opacity="1.000000" fill-rule="nonzero"/>
		<path id="Vector" d="M97.82 19.93C98.42 19.91 99.02 20.01 99.57 20.22C100.13 20.43 100.64 20.75 101.08 21.17C101.88 22.03 102.33 23.17 102.33 24.36C102.33 25.55 101.88 26.69 101.08 27.55C100.65 27.97 100.14 28.3 99.58 28.51C99.02 28.73 98.42 28.82 97.82 28.8C96.97 28.82 96.14 28.56 95.45 28.06L95.45 32.18C95.45 32.4 95.34 32.5 95.12 32.5L93.21 32.5C93.17 32.51 93.12 32.51 93.08 32.5C93.04 32.48 93 32.46 92.97 32.43C92.94 32.4 92.91 32.36 92.9 32.31C92.89 32.27 92.88 32.23 92.89 32.18L92.89 22.81C92.91 22.72 92.9 22.63 92.87 22.54C92.84 22.45 92.79 22.37 92.73 22.31C92.66 22.24 92.58 22.19 92.49 22.16C92.41 22.13 92.31 22.12 92.22 22.14L91.85 22.14C91.6 22.14 91.47 22.05 91.47 21.86L91.47 20.51C91.47 20.43 91.49 20.35 91.54 20.28C91.58 20.21 91.65 20.16 91.73 20.14C92.13 19.99 92.54 19.92 92.96 19.93C93.38 19.89 93.8 19.98 94.16 20.19C94.53 20.39 94.83 20.7 95.02 21.07C95.38 20.7 95.82 20.41 96.3 20.21C96.79 20.02 97.3 19.92 97.82 19.93ZM96.05 26.07C96.25 26.28 96.5 26.45 96.77 26.57C97.04 26.68 97.33 26.74 97.62 26.74C97.91 26.74 98.2 26.68 98.47 26.57C98.74 26.45 98.99 26.28 99.19 26.07C99.62 25.59 99.84 24.96 99.81 24.32C99.84 23.68 99.62 23.05 99.19 22.57C98.99 22.36 98.74 22.19 98.47 22.07C98.2 21.96 97.91 21.9 97.62 21.9C97.33 21.9 97.04 21.96 96.77 22.07C96.5 22.19 96.25 22.36 96.05 22.57C95.64 23.06 95.42 23.68 95.45 24.32C95.43 24.96 95.64 25.58 96.05 26.07Z" fill="#010032" fill-opacity="1.000000" fill-rule="nonzero"/>
		<path id="Vector" d="M107.69 28.8C106.67 28.84 105.66 28.6 104.77 28.09C104.41 27.88 104.11 27.58 103.88 27.23C103.65 26.88 103.51 26.48 103.45 26.07C103.45 25.84 103.53 25.73 103.78 25.73L105.45 25.73C105.53 25.73 105.61 25.75 105.67 25.8C105.74 25.84 105.79 25.9 105.83 25.98C106.06 26.59 106.69 26.9 107.69 26.9C108.04 26.92 108.39 26.85 108.7 26.7C108.81 26.65 108.9 26.57 108.97 26.47C109.04 26.37 109.08 26.26 109.09 26.14C109.09 25.84 108.91 25.63 108.54 25.5C108.11 25.35 107.66 25.26 107.21 25.21C106.68 25.15 106.14 25.06 105.62 24.93C105.11 24.81 104.65 24.54 104.29 24.16C104.08 23.9 103.93 23.6 103.84 23.28C103.75 22.95 103.72 22.61 103.77 22.28C103.82 21.95 103.93 21.63 104.1 21.34C104.28 21.06 104.51 20.81 104.78 20.62C105.6 20.09 106.56 19.84 107.53 19.89C108.47 19.85 109.4 20.09 110.21 20.56C110.54 20.75 110.82 21.01 111.04 21.32C111.25 21.63 111.4 21.98 111.46 22.35C111.46 22.58 111.36 22.7 111.16 22.7L109.47 22.7C109.4 22.7 109.33 22.68 109.27 22.65C109.21 22.61 109.16 22.56 109.13 22.49C109.02 22.22 108.81 22 108.54 21.89C108.24 21.73 107.9 21.65 107.56 21.66C107.23 21.64 106.9 21.71 106.6 21.85C106.49 21.89 106.4 21.97 106.34 22.06C106.27 22.15 106.24 22.26 106.23 22.38C106.24 22.53 106.3 22.68 106.4 22.81C106.5 22.93 106.63 23.01 106.78 23.05C107.22 23.22 107.67 23.33 108.13 23.39C108.66 23.47 109.19 23.56 109.71 23.69C110.22 23.81 110.68 24.07 111.04 24.46C111.23 24.67 111.38 24.92 111.48 25.18C111.57 25.45 111.61 25.74 111.6 26.02C111.61 26.42 111.52 26.81 111.33 27.16C111.15 27.51 110.87 27.8 110.54 28.01C109.69 28.56 108.7 28.84 107.69 28.8Z" fill="#010032" fill-opacity="1.000000" fill-rule="nonzero"/>
		<path id="Vector" d="M123.61 28.23C123.62 28.27 123.61 28.31 123.6 28.35C123.59 28.39 123.58 28.43 123.55 28.46C123.53 28.49 123.5 28.52 123.46 28.54C123.43 28.56 123.39 28.58 123.35 28.58C122.93 28.72 122.5 28.79 122.06 28.8C121.63 28.85 121.2 28.78 120.8 28.6C120.4 28.43 120.05 28.15 119.79 27.81C118.99 28.5 117.95 28.86 116.89 28.8C116.4 28.82 115.91 28.74 115.45 28.56C115 28.38 114.58 28.11 114.23 27.76C113.89 27.39 113.62 26.96 113.45 26.49C113.28 26.01 113.2 25.51 113.22 25.01L113.22 20.54C113.22 20.32 113.32 20.21 113.54 20.21L115.45 20.21C115.67 20.21 115.77 20.32 115.77 20.54L115.77 24.66C115.75 25.18 115.92 25.68 116.26 26.07C116.42 26.25 116.63 26.39 116.85 26.48C117.08 26.57 117.32 26.62 117.56 26.61C117.81 26.62 118.06 26.58 118.3 26.49C118.53 26.41 118.74 26.27 118.93 26.1C119.1 25.92 119.24 25.71 119.32 25.48C119.41 25.24 119.45 24.99 119.44 24.74L119.44 20.54C119.44 20.32 119.54 20.21 119.76 20.21L121.69 20.21C121.9 20.21 122.01 20.32 122.01 20.54L122.01 25.92C122.01 26.37 122.2 26.58 122.57 26.58C122.75 26.59 122.93 26.57 123.1 26.53C123.14 26.51 123.19 26.51 123.23 26.52C123.27 26.53 123.31 26.55 123.35 26.57C123.39 26.6 123.42 26.63 123.44 26.67C123.46 26.71 123.47 26.76 123.47 26.8L123.61 28.23Z" fill="#010032" fill-opacity="1.000000" fill-rule="nonzero"/>
		<path id="Vector" d="M141.67 28.23C141.67 28.27 141.68 28.31 141.67 28.35C141.66 28.4 141.64 28.43 141.62 28.47C141.59 28.5 141.56 28.53 141.52 28.55C141.49 28.57 141.45 28.58 141.4 28.58C140.98 28.72 140.54 28.79 140.1 28.8C139.42 28.84 138.75 28.64 138.2 28.25C137.96 28.08 137.77 27.86 137.63 27.6C137.5 27.34 137.43 27.05 137.44 26.75L137.44 24.07C137.46 23.56 137.29 23.05 136.96 22.66C136.8 22.48 136.6 22.34 136.39 22.25C136.16 22.16 135.93 22.12 135.69 22.13C135.47 22.12 135.26 22.16 135.06 22.25C134.87 22.33 134.69 22.46 134.55 22.63C134.25 23.01 134.1 23.49 134.12 23.98L134.12 28.19C134.12 28.41 134.02 28.53 133.8 28.53L131.88 28.53C131.84 28.53 131.79 28.53 131.75 28.51C131.71 28.5 131.67 28.47 131.64 28.44C131.6 28.41 131.58 28.37 131.57 28.33C131.55 28.29 131.55 28.24 131.55 28.19L131.55 24.07C131.58 23.56 131.42 23.06 131.11 22.66C130.97 22.5 130.8 22.36 130.6 22.27C130.4 22.17 130.19 22.13 129.97 22.13C129.74 22.12 129.51 22.16 129.29 22.24C129.08 22.33 128.88 22.46 128.72 22.63C128.4 23 128.23 23.48 128.26 23.98L128.26 28.19C128.26 28.24 128.26 28.29 128.24 28.33C128.23 28.37 128.2 28.41 128.17 28.44C128.14 28.47 128.1 28.5 128.06 28.51C128.02 28.53 127.97 28.53 127.93 28.53L126.07 28.53C125.86 28.53 125.76 28.41 125.76 28.19L125.76 22.81C125.77 22.72 125.76 22.63 125.73 22.54C125.7 22.45 125.66 22.37 125.59 22.31C125.52 22.24 125.45 22.19 125.36 22.16C125.27 22.13 125.18 22.12 125.09 22.14L124.71 22.14C124.46 22.14 124.34 22.05 124.34 21.86L124.34 20.51C124.33 20.43 124.35 20.35 124.4 20.28C124.45 20.21 124.52 20.16 124.6 20.14C124.99 19.99 125.41 19.92 125.82 19.93C126.23 19.9 126.63 19.98 126.99 20.16C127.35 20.35 127.64 20.63 127.85 20.98C128.23 20.62 128.69 20.34 129.18 20.15C129.68 19.97 130.21 19.9 130.73 19.93C131.25 19.91 131.76 20 132.22 20.21C132.69 20.42 133.1 20.74 133.43 21.14C133.8 20.73 134.27 20.41 134.78 20.2C135.3 19.99 135.85 19.9 136.4 19.93C136.9 19.91 137.39 19.99 137.86 20.17C138.32 20.35 138.74 20.62 139.1 20.97C139.44 21.34 139.71 21.77 139.88 22.24C140.06 22.72 140.14 23.22 140.11 23.73L140.11 25.93C140.11 26.37 140.3 26.58 140.67 26.58C140.84 26.59 141.02 26.57 141.19 26.53C141.42 26.53 141.55 26.62 141.56 26.8L141.67 28.23Z" fill="#010032" fill-opacity="1.000000" fill-rule="nonzero"/>
		<path id="Vector" d="M8.42 18.72C9.25 15.33 11.2 12.32 13.93 10.17C16.67 8.02 20.04 6.85 23.51 6.85C26.99 6.85 30.36 8.02 33.09 10.17C35.83 12.32 37.77 15.33 38.61 18.72L37.25 18.72C34.95 18.69 32.69 19.38 30.8 20.7C30.69 20.78 30.58 20.85 30.46 20.91L30.3 20.91C30.18 20.85 30.07 20.78 29.96 20.7C28.06 19.41 25.81 18.72 23.51 18.72C21.22 18.72 18.97 19.41 17.06 20.7C16.95 20.78 16.84 20.85 16.72 20.91L16.56 20.91C16.45 20.85 16.33 20.78 16.22 20.7C14.33 19.38 12.08 18.69 9.78 18.72L8.42 18.72ZM34.79 25.89C35.49 25.34 36.36 25.05 37.25 25.07L39.08 25.07L39.08 21.41L37.25 21.41C35.68 21.39 34.16 21.88 32.89 22.8C32.18 23.33 31.32 23.61 30.44 23.61C29.56 23.61 28.7 23.33 27.98 22.8C26.69 21.89 25.15 21.41 23.57 21.41C21.99 21.41 20.45 21.89 19.15 22.8C18.44 23.33 17.58 23.61 16.7 23.61C15.82 23.61 14.96 23.33 14.25 22.8C12.97 21.86 11.42 21.37 9.84 21.41L7.95 21.41L7.95 25.07L9.78 25.07C10.67 25.05 11.53 25.34 12.23 25.89C13.53 26.79 15.07 27.28 16.64 27.28C18.22 27.28 19.76 26.79 21.05 25.89C21.75 25.34 22.62 25.05 23.51 25.07C24.39 25.05 25.26 25.34 25.96 25.89C27.26 26.79 28.8 27.28 30.38 27.28C31.95 27.28 33.5 26.79 34.79 25.89ZM34.79 32.45C35.49 31.9 36.36 31.61 37.25 31.63L39.08 31.63L39.08 27.97L37.25 27.97C35.68 27.95 34.16 28.44 32.89 29.36C32.18 29.89 31.32 30.17 30.44 30.17C29.56 30.17 28.7 29.89 27.98 29.36C26.69 28.45 25.15 27.97 23.57 27.97C21.99 27.97 20.45 28.45 19.15 29.36C18.44 29.89 17.58 30.17 16.7 30.17C15.82 30.17 14.96 29.89 14.25 29.36C12.97 28.42 11.42 27.93 9.84 27.97L7.95 27.97L7.95 31.63L9.78 31.63C10.67 31.61 11.53 31.9 12.23 32.45C13.53 33.35 15.07 33.84 16.64 33.84C18.22 33.84 19.76 33.35 21.05 32.45C21.75 31.9 22.62 31.61 23.51 31.63C24.39 31.61 25.26 31.9 25.96 32.45C27.26 33.35 28.8 33.84 30.38 33.84C31.95 33.84 33.5 33.35 34.79 32.45Z" fill="#010032" fill-opacity="1.000000" fill-rule="nonzero"/>
	</g>
</svg>
