<svg width="158.000000" height="40.000000" viewBox="0 0 158 40" fill="none" xmlns="http://www.w3.org/2000/svg" xmlns:xlink="http://www.w3.org/1999/xlink">
	<desc>
			Created with Pixso.
	</desc>
	<defs>
		<clipPath id="clip1_109">
			<rect id="IMAGE" width="158.000000" height="40.000000" fill="white" fill-opacity="0"/>
		</clipPath>
	</defs>
	<g clip-path="url(#clip1_109)">
		<path id="Vector" d="M18.21 7.82L18.21 2.82L2.41 2.82L2.41 37.17L18.21 37.17L18.21 32.17C14.98 32.17 11.87 30.89 9.58 28.61C7.29 26.32 6.01 23.22 6.01 20C6.01 16.77 7.29 13.67 9.58 11.38C11.87 9.1 14.98 7.82 18.21 7.82Z" fill="#010032" fill-opacity="1.000000" fill-rule="nonzero"/>
		<path id="Vector" d="M18.21 7.82L18.21 32.17C21.45 32.17 24.55 30.89 26.84 28.61C29.13 26.32 30.42 23.22 30.42 20C30.42 16.77 29.13 13.67 26.84 11.38C24.55 9.1 21.45 7.82 18.21 7.82Z" fill="#010032" fill-opacity="1.000000" fill-rule="nonzero"/>
		<path id="Vector" d="M39.28 10.88L42.82 10.88L42.82 27.88L39.28 27.88L39.28 10.88Z" fill="#010032" fill-opacity="1.000000" fill-rule="nonzero"/>
		<path id="Vector" d="M44.8 22.05C44.8 20.83 45.16 19.64 45.85 18.62C46.53 17.6 47.5 16.81 48.63 16.34C49.76 15.88 51.01 15.76 52.21 16C53.41 16.24 54.52 16.83 55.38 17.7C56.24 18.57 56.83 19.67 57.07 20.87C57.3 22.07 57.17 23.31 56.7 24.44C56.23 25.57 55.43 26.53 54.4 27.21C53.38 27.88 52.18 28.24 50.96 28.23C50.14 28.24 49.34 28.08 48.58 27.77C47.83 27.46 47.15 27.01 46.58 26.43C46 25.86 45.55 25.17 45.25 24.42C44.94 23.67 44.79 22.87 44.8 22.05ZM53.67 22.05C53.65 21.53 53.48 21.02 53.18 20.58C52.88 20.15 52.45 19.82 51.96 19.63C51.47 19.43 50.93 19.39 50.41 19.5C49.9 19.61 49.42 19.87 49.05 20.25C48.69 20.63 48.44 21.11 48.34 21.63C48.24 22.15 48.3 22.68 48.5 23.17C48.71 23.65 49.05 24.07 49.49 24.36C49.93 24.65 50.45 24.81 50.98 24.81C51.34 24.81 51.7 24.75 52.03 24.61C52.36 24.47 52.66 24.27 52.91 24.01C53.16 23.75 53.36 23.44 53.48 23.11C53.61 22.77 53.66 22.41 53.64 22.05L53.67 22.05Z" fill="#010032" fill-opacity="1.000000" fill-rule="nonzero"/>
		<path id="Vector" d="M71.11 16.23L71.11 27.3C71.11 31.21 68.04 32.87 64.94 32.87C63.85 32.96 62.75 32.74 61.77 32.24C60.79 31.74 59.98 30.98 59.41 30.04L62.39 28.32C62.63 28.81 63.02 29.21 63.49 29.47C63.97 29.74 64.52 29.85 65.06 29.8C65.4 29.84 65.75 29.8 66.08 29.7C66.41 29.59 66.71 29.41 66.97 29.17C67.22 28.93 67.42 28.64 67.54 28.32C67.67 27.99 67.72 27.65 67.7 27.3L67.7 26.23C67.29 26.73 66.76 27.12 66.17 27.39C65.58 27.65 64.94 27.77 64.29 27.74C62.73 27.74 61.23 27.12 60.12 26.01C59.02 24.91 58.4 23.41 58.4 21.85C58.4 20.29 59.02 18.8 60.12 17.69C61.23 16.59 62.73 15.97 64.29 15.97C64.94 15.94 65.58 16.06 66.17 16.32C66.76 16.58 67.29 16.98 67.7 17.48L67.7 16.3L71.11 16.23ZM67.7 21.82C67.72 21.26 67.58 20.7 67.28 20.22C66.98 19.74 66.55 19.36 66.04 19.13C65.52 18.9 64.95 18.82 64.39 18.92C63.84 19.01 63.32 19.27 62.91 19.66C62.51 20.05 62.22 20.55 62.11 21.11C61.99 21.66 62.03 22.23 62.24 22.75C62.46 23.28 62.82 23.72 63.28 24.04C63.75 24.36 64.3 24.52 64.87 24.52C65.24 24.55 65.61 24.5 65.95 24.38C66.3 24.25 66.62 24.05 66.89 23.8C67.15 23.54 67.36 23.24 67.5 22.89C67.64 22.55 67.71 22.19 67.7 21.82Z" fill="#010032" fill-opacity="1.000000" fill-rule="nonzero"/>
		<path id="Vector" d="M73.1 22.05C73.1 20.83 73.46 19.64 74.14 18.62C74.82 17.61 75.79 16.81 76.92 16.35C78.05 15.88 79.3 15.76 80.5 16C81.7 16.24 82.81 16.83 83.67 17.69C84.54 18.56 85.12 19.66 85.36 20.86C85.6 22.05 85.48 23.3 85 24.43C84.53 25.55 83.74 26.52 82.72 27.2C81.7 27.87 80.5 28.23 79.28 28.23C78.46 28.24 77.65 28.08 76.9 27.78C76.15 27.47 75.46 27.01 74.89 26.44C74.31 25.86 73.86 25.18 73.55 24.43C73.24 23.67 73.09 22.87 73.1 22.05ZM81.97 22.05C81.95 21.53 81.78 21.01 81.48 20.58C81.17 20.15 80.75 19.82 80.26 19.63C79.76 19.43 79.22 19.39 78.71 19.5C78.19 19.62 77.72 19.88 77.35 20.26C76.98 20.64 76.73 21.11 76.64 21.63C76.54 22.15 76.6 22.69 76.8 23.17C77.01 23.66 77.36 24.07 77.8 24.36C78.24 24.66 78.76 24.81 79.29 24.81C79.65 24.81 80.01 24.75 80.34 24.61C80.67 24.47 80.97 24.27 81.22 24.01C81.47 23.75 81.67 23.44 81.79 23.11C81.92 22.77 81.97 22.41 81.95 22.05L81.97 22.05Z" fill="#010032" fill-opacity="1.000000" fill-rule="nonzero"/>
		<path id="Vector" d="M87.09 13.11C87.09 12.7 87.22 12.29 87.45 11.95C87.68 11.6 88.01 11.34 88.39 11.18C88.77 11.02 89.2 10.98 89.6 11.06C90.01 11.14 90.38 11.34 90.68 11.63C90.97 11.92 91.17 12.3 91.25 12.7C91.33 13.11 91.29 13.53 91.13 13.91C90.97 14.3 90.7 14.62 90.36 14.85C90.01 15.08 89.61 15.21 89.19 15.21C88.64 15.2 88.11 14.98 87.72 14.59C87.32 14.2 87.1 13.67 87.09 13.11ZM87.44 16.23L90.97 16.23L90.97 27.88L87.44 27.88L87.44 16.23Z" fill="#010032" fill-opacity="1.000000" fill-rule="nonzero"/>
		<path id="Vector" d="M106.11 22.05C106.15 22.83 106.04 23.6 105.78 24.33C105.52 25.06 105.11 25.74 104.59 26.31C104.07 26.88 103.44 27.35 102.73 27.68C102.03 28.01 101.27 28.2 100.49 28.23C99.83 28.27 99.17 28.17 98.56 27.92C97.95 27.68 97.4 27.29 96.95 26.81L96.95 32.56L93.41 32.56L93.41 16.23L96.95 16.23L96.95 17.32C97.4 16.84 97.95 16.46 98.56 16.21C99.17 15.97 99.83 15.87 100.49 15.91C101.26 15.95 102.02 16.13 102.72 16.46C103.42 16.79 104.05 17.25 104.58 17.82C105.1 18.39 105.5 19.06 105.77 19.78C106.03 20.51 106.15 21.28 106.11 22.05ZM102.58 22.05C102.56 21.51 102.39 20.98 102.07 20.53C101.76 20.08 101.32 19.74 100.81 19.54C100.3 19.34 99.74 19.3 99.2 19.41C98.67 19.53 98.18 19.8 97.8 20.19C97.42 20.58 97.16 21.08 97.06 21.62C96.96 22.15 97.02 22.71 97.23 23.21C97.45 23.71 97.81 24.14 98.26 24.44C98.72 24.74 99.26 24.9 99.81 24.9C100.18 24.92 100.56 24.85 100.9 24.71C101.25 24.58 101.57 24.37 101.83 24.1C102.09 23.83 102.29 23.51 102.42 23.15C102.55 22.8 102.6 22.43 102.58 22.05Z" fill="#010032" fill-opacity="1.000000" fill-rule="nonzero"/>
		<path id="Vector" d="M116.88 24.38C116.88 27.07 114.52 28.21 112.02 28.21C111 28.3 109.98 28.08 109.08 27.59C108.19 27.09 107.46 26.34 107 25.43L110.04 23.71C110.16 24.13 110.42 24.5 110.78 24.75C111.14 25 111.57 25.12 112.01 25.09C112.85 25.09 113.27 24.83 113.27 24.36C113.27 23.08 107.53 23.76 107.53 19.72C107.53 17.18 109.68 15.91 112.1 15.91C113.03 15.87 113.95 16.08 114.76 16.52C115.57 16.95 116.25 17.6 116.73 18.4L113.68 20C113.55 19.69 113.33 19.43 113.05 19.25C112.77 19.07 112.45 18.97 112.12 18.97C111.5 18.97 111.14 19.21 111.14 19.62C111.14 20.96 116.88 20.08 116.88 24.38Z" fill="#010032" fill-opacity="1.000000" fill-rule="nonzero"/>
		<path id="Vector" d="M129.7 16.23L129.7 27.88L126.16 27.88L126.16 26.78C125.76 27.27 125.25 27.65 124.67 27.9C124.09 28.15 123.46 28.27 122.83 28.23C120.48 28.23 118.46 26.55 118.46 23.41L118.46 16.23L122 16.23L122 22.88C121.97 23.16 122 23.44 122.09 23.7C122.19 23.96 122.33 24.2 122.53 24.41C122.72 24.61 122.96 24.76 123.22 24.87C123.48 24.97 123.76 25.01 124.04 25C125.31 25 126.21 24.24 126.21 22.64L126.21 16.23L129.7 16.23Z" fill="#010032" fill-opacity="1.000000" fill-rule="nonzero"/>
		<path id="Vector" d="M149.74 20.72L149.74 27.88L146.2 27.88L146.2 21.03C146.2 19.85 145.65 19.12 144.53 19.12C143.41 19.12 142.7 19.94 142.7 21.31L142.7 27.88L139.17 27.88L139.17 21.03C139.17 19.85 138.61 19.12 137.49 19.12C136.37 19.12 135.66 19.94 135.66 21.31L135.66 27.88L132.13 27.88L132.13 16.23L135.66 16.23L135.66 17.3C136.03 16.83 136.51 16.45 137.06 16.21C137.6 15.97 138.2 15.87 138.8 15.91C139.4 15.88 139.99 16.01 140.53 16.27C141.07 16.54 141.52 16.94 141.85 17.44C142.24 16.92 142.76 16.51 143.35 16.24C143.94 15.97 144.59 15.86 145.24 15.91C148 15.91 149.74 17.82 149.74 20.72Z" fill="#010032" fill-opacity="1.000000" fill-rule="nonzero"/>
		<path id="Vector" d="M152.71 16.16C154.14 16.16 155.31 15 155.31 13.57C155.31 12.14 154.14 10.98 152.71 10.98C151.28 10.98 150.12 12.14 150.12 13.57C150.12 15 151.28 16.16 152.71 16.16Z" fill="#010032" fill-opacity="1.000000" fill-rule="nonzero"/>
	</g>
</svg>
