<svg width="156.000000" height="40.000000" viewBox="0 0 156 40" fill="none" xmlns="http://www.w3.org/2000/svg" xmlns:xlink="http://www.w3.org/1999/xlink">
	<desc>
			Created with Pixso.
	</desc>
	<defs>
		<clipPath id="clip1_106">
			<rect id="IMAGE" width="156.000000" height="40.000000" fill="white" fill-opacity="0"/>
		</clipPath>
	</defs>
	<g clip-path="url(#clip1_106)">
		<path id="Vector" d="M46.38 12.58L50.15 12.58L50.15 27.75L46.38 27.75L46.38 12.58ZM51.65 22.02C51.65 18.27 53.97 16.03 57.54 16.03C61.11 16.03 63.43 18.27 63.43 22.02C63.43 25.77 61.16 28.02 57.54 28.02C53.92 28.02 51.65 25.83 51.65 22.02ZM59.64 22.02C59.64 19.96 58.82 18.75 57.54 18.75C56.26 18.75 55.45 20 55.45 22.02C55.45 24.04 56.24 25.27 57.54 25.27C58.83 25.27 59.64 24.12 59.64 22.03L59.64 22.02ZM64.85 28.48L68.47 28.48C68.64 28.86 68.94 29.18 69.3 29.38C69.67 29.58 70.09 29.66 70.51 29.61C71.94 29.61 72.7 28.83 72.7 27.71L72.7 25.61L72.62 25.61C72.32 26.25 71.83 26.79 71.22 27.16C70.61 27.52 69.9 27.7 69.19 27.66C66.43 27.66 64.61 25.57 64.61 21.98C64.61 18.4 66.35 16.13 69.24 16.13C69.97 16.1 70.7 16.3 71.32 16.69C71.94 17.09 72.43 17.66 72.71 18.33L72.71 16.25L76.49 16.25L76.49 27.62C76.49 30.36 74.06 32.06 70.47 32.06C67.14 32.06 65.06 30.57 64.85 28.5L64.85 28.48ZM72.71 22.01C72.71 20.18 71.87 19.03 70.53 19.03C69.2 19.03 68.38 20.17 68.38 22.01C68.38 23.85 69.19 24.88 70.53 24.88C71.88 24.88 72.71 23.87 72.71 22.02L72.71 22.01ZM77.91 22.01C77.91 18.26 80.22 16.02 83.79 16.02C87.37 16.02 89.7 18.26 89.7 22.01C89.7 25.76 87.43 28.01 83.79 28.01C80.16 28.01 77.91 25.83 77.91 22.02L77.91 22.01ZM85.9 22.01C85.9 19.95 85.08 18.73 83.79 18.73C82.51 18.73 81.77 20 81.77 22.03C81.77 24.07 82.56 25.28 83.84 25.28C85.13 25.28 85.9 24.12 85.9 22.03L85.9 22.01ZM91.13 13.52C91.12 13.14 91.22 12.77 91.43 12.45C91.63 12.13 91.93 11.88 92.27 11.72C92.62 11.57 93.01 11.52 93.38 11.59C93.76 11.65 94.11 11.83 94.38 12.09C94.66 12.35 94.85 12.69 94.93 13.06C95.02 13.43 94.99 13.81 94.85 14.16C94.71 14.52 94.47 14.82 94.16 15.04C93.84 15.26 93.47 15.38 93.09 15.38C92.84 15.4 92.59 15.36 92.35 15.28C92.11 15.2 91.89 15.06 91.71 14.89C91.52 14.72 91.38 14.51 91.28 14.28C91.18 14.05 91.13 13.8 91.13 13.54L91.13 13.52ZM91.13 16.27L94.9 16.27L94.9 27.75L91.13 27.75L91.13 16.27ZM108.6 22.01C108.6 25.76 106.93 27.9 104.06 27.9C103.33 27.94 102.59 27.76 101.96 27.38C101.33 27 100.84 26.44 100.54 25.77L100.46 25.77L100.46 31.42L96.69 31.42L96.69 16.25L100.46 16.25L100.46 18.29L100.54 18.29C100.82 17.61 101.31 17.04 101.94 16.64C102.56 16.24 103.3 16.05 104.04 16.08C106.93 16.13 108.65 18.28 108.65 22.03L108.6 22.01ZM104.83 22.01C104.83 20.18 103.99 19.02 102.67 19.02C101.35 19.02 100.5 20.2 100.49 22.01C100.48 23.82 101.35 24.98 102.67 24.98C103.99 24.98 104.83 23.85 104.83 22.03L104.83 22.01ZM115.08 16.01C118.22 16.01 120.12 17.48 120.2 19.85L116.77 19.85C116.77 19.03 116.09 18.52 115.05 18.52C114 18.52 113.54 18.92 113.54 19.51C113.54 20.1 113.95 20.28 114.79 20.46L117.21 20.95C119.51 21.43 120.49 22.36 120.49 24.1C120.49 26.47 118.32 28 115.11 28C111.9 28 109.8 26.47 109.64 24.13L113.27 24.13C113.38 24.98 114.06 25.48 115.17 25.48C116.28 25.48 116.78 25.12 116.78 24.52C116.78 23.92 116.43 23.79 115.52 23.61L113.35 23.15C111.1 22.68 109.91 21.5 109.91 19.75C109.94 17.5 111.96 16.03 115.08 16.03L115.08 16.01ZM133.09 27.72L129.45 27.72L129.45 25.58L129.37 25.58C129.17 26.3 128.73 26.93 128.13 27.36C127.52 27.8 126.78 28.01 126.03 27.97C125.45 28 124.88 27.91 124.35 27.71C123.81 27.5 123.33 27.18 122.93 26.77C122.52 26.36 122.22 25.87 122.02 25.34C121.83 24.8 121.75 24.23 121.8 23.66L121.8 16.25L125.58 16.25L125.58 22.79C125.58 24.16 126.28 24.88 127.45 24.88C127.72 24.88 128 24.83 128.25 24.71C128.5 24.6 128.72 24.44 128.9 24.23C129.08 24.03 129.22 23.79 129.3 23.53C129.37 23.27 129.4 22.99 129.36 22.72L129.36 16.25L133.14 16.25L133.09 27.72ZM134.91 16.25L138.56 16.25L138.56 18.46L138.63 18.46C138.83 17.75 139.27 17.13 139.86 16.69C140.45 16.25 141.18 16.02 141.92 16.03C142.67 15.97 143.42 16.2 144.01 16.66C144.61 17.12 145 17.79 145.13 18.53L145.2 18.53C145.43 17.78 145.9 17.13 146.54 16.68C147.19 16.23 147.96 16 148.75 16.03C149.26 16.02 149.77 16.11 150.25 16.3C150.73 16.49 151.15 16.78 151.51 17.15C151.87 17.51 152.14 17.95 152.32 18.43C152.49 18.91 152.56 19.42 152.52 19.93L152.52 27.75L148.75 27.75L148.75 20.93C148.75 19.68 148.18 19.11 147.13 19.11C146.89 19.11 146.66 19.15 146.44 19.25C146.23 19.34 146.03 19.48 145.88 19.66C145.72 19.84 145.61 20.04 145.53 20.27C145.47 20.49 145.45 20.73 145.48 20.96L145.48 27.75L141.89 27.75L141.89 20.88C141.89 19.73 141.33 19.11 140.29 19.11C140.06 19.11 139.82 19.16 139.6 19.26C139.39 19.35 139.19 19.49 139.03 19.67C138.88 19.85 138.76 20.06 138.69 20.28C138.62 20.51 138.59 20.75 138.62 20.98L138.62 27.75L134.85 27.75L134.91 16.25Z" fill="#010032" fill-opacity="1.000000" fill-rule="nonzero"/>
		<path id="Vector" d="M35.83 13.27C35.18 11.82 34.34 10.46 33.31 9.25C31.79 7.4 29.89 5.89 27.74 4.82C25.59 3.75 23.24 3.15 20.84 3.05C18.44 2.95 16.04 3.35 13.81 4.24C11.58 5.13 9.56 6.47 7.89 8.19C6.22 9.9 4.93 11.95 4.12 14.2C3.3 16.45 2.97 18.84 3.15 21.22C3.33 23.6 4.02 25.92 5.17 28.02C6.32 30.11 7.9 31.95 9.81 33.4C11.04 34.34 12.39 35.11 13.83 35.68C15.86 36.51 18.03 36.93 20.21 36.93C24.73 36.92 29.06 35.13 32.25 31.96C35.44 28.78 37.23 24.48 37.23 20C37.24 17.68 36.76 15.39 35.83 13.27ZM20.2 6.48C22.16 6.48 24.11 6.91 25.89 7.73C25.45 7.92 25 8.05 24.53 8.12C22.99 8.34 21.56 9.05 20.46 10.14C19.36 11.24 18.65 12.65 18.43 14.18C18.33 15.04 17.94 15.84 17.31 16.44C16.69 17.04 15.88 17.42 15.02 17.5C13.48 17.72 12.05 18.43 10.95 19.52C9.85 20.61 9.14 22.03 8.92 23.56C8.84 24.37 8.49 25.14 7.92 25.73C6.94 23.67 6.5 21.4 6.64 19.13C6.78 16.86 7.5 14.66 8.73 12.73C9.95 10.81 11.65 9.22 13.66 8.13C15.67 7.03 17.92 6.46 20.21 6.46L20.2 6.48ZM9.8 28.75C9.95 28.61 10.1 28.48 10.25 28.33C11.37 27.25 12.09 25.83 12.29 24.3C12.37 23.43 12.76 22.63 13.38 22.02C13.98 21.4 14.79 21.02 15.66 20.95C17.2 20.72 18.62 20.01 19.72 18.92C20.82 17.83 21.54 16.41 21.76 14.88C21.81 13.98 22.2 13.13 22.85 12.5C23.47 11.88 24.29 11.52 25.16 11.46C26.57 11.26 27.89 10.64 28.93 9.67C30.12 10.65 31.12 11.82 31.9 13.15C31.85 13.21 31.8 13.27 31.74 13.32C31.14 13.95 30.33 14.34 29.46 14.42C27.92 14.64 26.49 15.35 25.39 16.44C24.29 17.53 23.58 18.95 23.36 20.48C23.27 21.34 22.88 22.15 22.27 22.76C21.65 23.37 20.84 23.75 19.97 23.83C18.43 24.05 17 24.76 15.89 25.85C14.79 26.95 14.06 28.36 13.83 29.9C13.77 30.51 13.56 31.09 13.22 31.61C11.93 30.85 10.77 29.88 9.8 28.75ZM20.2 33.57C18.92 33.57 17.65 33.39 16.43 33.05C16.85 32.27 17.12 31.42 17.23 30.55C17.32 29.69 17.7 28.88 18.32 28.27C18.93 27.66 19.74 27.28 20.6 27.2C22.14 26.98 23.57 26.27 24.67 25.17C25.78 24.08 26.49 22.66 26.72 21.13C26.81 20.27 27.19 19.47 27.8 18.86C28.42 18.25 29.22 17.87 30.09 17.78C31.25 17.63 32.35 17.2 33.31 16.53C33.84 18.53 33.9 20.62 33.49 22.65C33.08 24.67 32.21 26.58 30.95 28.22C29.68 29.85 28.05 31.18 26.19 32.1C24.33 33.02 22.28 33.5 20.2 33.51L20.2 33.57Z" fill="#010032" fill-opacity="1.000000" fill-rule="nonzero"/>
	</g>
</svg>
