<svg width="56.000000" height="56.000000" viewBox="0 0 56 56" fill="none" xmlns="http://www.w3.org/2000/svg" xmlns:xlink="http://www.w3.org/1999/xlink">
	<desc>
			Created with Pixso.
	</desc>
	<defs>
		<clipPath id="clip1_224">
			<rect id="IMAGE" width="56.000000" height="56.000000" fill="white" fill-opacity="0"/>
		</clipPath>
	</defs>
	<g clip-path="url(#clip1_224)">
		<path id="Vector" d="M41.3 14.7L42.93 13.06L41.3 14.7ZM9.33 28L7 28L9.33 28ZM28 9.33L28 7L28 9.33ZM49 28L46.66 28L49 28ZM14.7 14.7L13.06 13.06L14.7 14.7Z" stroke="#D8D8EB" stroke-opacity="1.000000" stroke-width="3.000000" stroke-linejoin="round"/>
		<path id="Vector" d="M16.86 31.47C16.13 29.14 16.15 26.63 16.93 24.31C17.7 21.98 19.19 19.96 21.17 18.53C23.16 17.1 25.55 16.33 28 16.33C30.44 16.33 32.83 17.1 34.82 18.53C36.8 19.96 38.29 21.98 39.06 24.31C39.84 26.63 39.86 29.14 39.13 31.47C38.4 33.81 36.95 35.86 35 37.33C34.08 38.23 33.4 39.33 32.99 40.55C32.59 41.77 32.47 43.06 32.66 44.33C32.66 45.57 32.17 46.75 31.3 47.63C30.42 48.5 29.23 49 28 49C26.76 49 25.57 48.5 24.7 47.63C23.82 46.75 23.33 45.57 23.33 44.33C23.52 43.06 23.4 41.77 23 40.55C22.59 39.33 21.91 38.23 21 37.33C19.04 35.86 17.59 33.81 16.86 31.47Z" stroke="#D8D8EB" stroke-opacity="1.000000" stroke-width="3.000000" stroke-linejoin="round"/>
		<path id="Vector" d="M22.63 39.66L33.36 39.66" stroke="#D8D8EB" stroke-opacity="1.000000" stroke-width="3.000000" stroke-linejoin="round" stroke-linecap="round"/>
	</g>
</svg>
