<svg width="400.000000" height="41.000000" viewBox="0 0 400 41" fill="none" xmlns="http://www.w3.org/2000/svg" xmlns:xlink="http://www.w3.org/1999/xlink">
	<desc>
			Created with Pixso.
	</desc>
	<defs>
		<clipPath id="clip1_86">
			<rect id="IMAGE" width="22.000000" height="21.000000" fill="white" fill-opacity="0"/>
		</clipPath>
		<clipPath id="clip1_88">
			<rect id="IMAGE" width="22.000000" height="21.000000" transform="translate(32.000000 0.000000)" fill="white" fill-opacity="0"/>
		</clipPath>
		<clipPath id="clip1_90">
			<rect id="IMAGE" width="22.000000" height="21.000000" transform="translate(64.000000 0.000000)" fill="white" fill-opacity="0"/>
		</clipPath>
		<clipPath id="clip1_92">
			<rect id="IMAGE" width="22.000000" height="21.000000" transform="translate(96.000000 0.000000)" fill="white" fill-opacity="0"/>
		</clipPath>
		<clipPath id="clip1_94">
			<rect id="IMAGE" width="22.000000" height="21.000000" transform="translate(128.000000 0.000000)" fill="white" fill-opacity="0"/>
		</clipPath>
	</defs>
	<g clip-path="url(#clip1_86)">
		<path id="Vector" d="M10.98 0C11.36 0 11.71 0.21 11.88 0.55L14.73 6.33L21.11 7.26C21.49 7.31 21.8 7.58 21.92 7.94C22.04 8.3 21.94 8.7 21.66 8.96L17.04 13.46L18.13 19.82C18.2 20.19 18.04 20.57 17.73 20.8C17.43 21.02 17.02 21.05 16.68 20.87L10.99 17.87L5.28 20.87C4.94 21.05 4.54 21.02 4.23 20.8C3.92 20.57 3.77 20.19 3.83 19.82L4.92 13.46L0.3 8.96C0.02 8.7 -0.07 8.3 0.04 7.94C0.16 7.58 0.47 7.31 0.85 7.26L7.23 6.33L10.08 0.55C10.25 0.21 10.6 0 10.98 0Z" fill="#4543E8" fill-opacity="1.000000" fill-rule="evenodd"/>
	</g>
	<g clip-path="url(#clip1_88)">
		<path id="Vector" d="M42.98 0C43.36 0 43.71 0.21 43.88 0.55L46.73 6.33L53.11 7.26C53.49 7.31 53.8 7.58 53.92 7.94C54.04 8.3 53.94 8.7 53.66 8.96L49.04 13.46L50.13 19.82C50.2 20.19 50.04 20.57 49.73 20.8C49.43 21.02 49.02 21.05 48.68 20.87L42.99 17.87L37.28 20.87C36.94 21.05 36.54 21.02 36.23 20.8C35.92 20.57 35.77 20.19 35.83 19.82L36.92 13.46L32.3 8.96C32.02 8.7 31.93 8.3 32.04 7.94C32.16 7.58 32.47 7.31 32.85 7.26L39.23 6.33L42.08 0.55C42.25 0.21 42.6 0 42.98 0Z" fill="#4543E8" fill-opacity="1.000000" fill-rule="evenodd"/>
	</g>
	<g clip-path="url(#clip1_90)">
		<path id="Vector" d="M74.98 0C75.36 0 75.71 0.21 75.88 0.55L78.73 6.33L85.11 7.26C85.49 7.31 85.8 7.58 85.92 7.94C86.04 8.3 85.94 8.7 85.66 8.96L81.04 13.46L82.13 19.82C82.2 20.19 82.04 20.57 81.73 20.8C81.43 21.02 81.02 21.05 80.68 20.87L74.99 17.87L69.28 20.87C68.94 21.05 68.54 21.02 68.23 20.8C67.92 20.57 67.77 20.19 67.83 19.82L68.92 13.46L64.3 8.96C64.02 8.7 63.93 8.3 64.04 7.94C64.16 7.58 64.47 7.31 64.85 7.26L71.23 6.33L74.08 0.55C74.25 0.21 74.6 0 74.98 0Z" fill="#4543E8" fill-opacity="1.000000" fill-rule="evenodd"/>
	</g>
	<g clip-path="url(#clip1_92)">
		<path id="Vector" d="M106.98 0C107.36 0 107.71 0.21 107.88 0.55L110.73 6.33L117.11 7.26C117.49 7.31 117.8 7.58 117.92 7.94C118.04 8.3 117.94 8.7 117.66 8.96L113.04 13.46L114.13 19.82C114.2 20.19 114.04 20.57 113.73 20.8C113.43 21.02 113.02 21.05 112.68 20.87L106.99 17.87L101.28 20.87C100.94 21.05 100.54 21.02 100.23 20.8C99.92 20.57 99.77 20.19 99.83 19.82L100.92 13.46L96.3 8.96C96.02 8.7 95.93 8.3 96.04 7.94C96.16 7.58 96.47 7.31 96.85 7.26L103.23 6.33L106.08 0.55C106.25 0.21 106.6 0 106.98 0Z" fill="#4543E8" fill-opacity="1.000000" fill-rule="evenodd"/>
	</g>
	<g clip-path="url(#clip1_94)">
		<path id="Vector" d="M138.98 0C139.36 0 139.71 0.21 139.88 0.55L142.73 6.33L149.11 7.26C149.49 7.31 149.8 7.58 149.92 7.94C150.04 8.3 149.94 8.7 149.66 8.96L145.04 13.46L146.13 19.82C146.2 20.19 146.04 20.57 145.73 20.8C145.42 21.02 145.02 21.05 144.68 20.87L138.99 17.87L133.28 20.87C132.94 21.05 132.54 21.02 132.23 20.8C131.92 20.57 131.77 20.19 131.83 19.82L132.92 13.46L128.3 8.96C128.03 8.7 127.93 8.3 128.04 7.94C128.16 7.58 128.48 7.31 128.85 7.26L135.23 6.33L138.08 0.55C138.25 0.21 138.6 0 138.98 0Z" fill="#4543E8" fill-opacity="1.000000" fill-rule="evenodd"/>
	</g>
</svg>
