<svg width="152.000000" height="24.000000" viewBox="0 0 152 24" fill="none" xmlns="http://www.w3.org/2000/svg" xmlns:xlink="http://www.w3.org/1999/xlink">
	<desc>
			Created with Pixso.
	</desc>
	<defs>
		<clipPath id="clip1_298">
			<rect id="IMAGE" width="152.000000" height="24.000000" fill="white" fill-opacity="0"/>
		</clipPath>
	</defs>
	<g clip-path="url(#clip1_298)">
		<path id="Vector" d="M11.99 1C12.37 1 12.72 1.21 12.89 1.55L15.74 7.34L22.12 8.26C22.5 8.31 22.81 8.58 22.93 8.94C23.04 9.3 22.95 9.7 22.67 9.97L18.05 14.47L19.14 20.82C19.2 21.2 19.05 21.58 18.74 21.8C18.43 22.02 18.02 22.05 17.69 21.87L12 18.87L6.29 21.87C5.95 22.05 5.54 22.02 5.24 21.8C4.93 21.58 4.77 21.2 4.84 20.82L5.93 14.47L1.31 9.97C1.03 9.7 0.93 9.3 1.05 8.94C1.17 8.58 1.48 8.31 1.86 8.26L8.24 7.34L11.09 1.55C11.26 1.21 11.61 1 11.99 1Z" fill="#F5DB76" fill-opacity="1.000000" fill-rule="evenodd"/>
		<path id="Vector" d="M43.99 1C44.37 1 44.72 1.21 44.89 1.55L47.74 7.34L54.12 8.26C54.5 8.31 54.81 8.58 54.93 8.94C55.04 9.3 54.95 9.7 54.67 9.97L50.05 14.47L51.14 20.82C51.2 21.2 51.05 21.58 50.74 21.8C50.43 22.02 50.02 22.05 49.69 21.87L44 18.87L38.29 21.87C37.95 22.05 37.54 22.02 37.24 21.8C36.93 21.58 36.77 21.2 36.84 20.82L37.93 14.47L33.31 9.97C33.03 9.7 32.93 9.3 33.05 8.94C33.17 8.58 33.48 8.31 33.86 8.26L40.24 7.34L43.09 1.55C43.26 1.21 43.61 1 43.99 1Z" fill="#F5DB76" fill-opacity="1.000000" fill-rule="evenodd"/>
		<path id="Vector" d="M75.99 1C76.37 1 76.72 1.21 76.89 1.55L79.74 7.34L86.12 8.26C86.5 8.31 86.81 8.58 86.93 8.94C87.04 9.3 86.95 9.7 86.67 9.97L82.05 14.47L83.14 20.82C83.2 21.2 83.05 21.58 82.74 21.8C82.43 22.02 82.02 22.05 81.69 21.87L76 18.87L70.29 21.87C69.95 22.05 69.54 22.02 69.24 21.8C68.93 21.58 68.77 21.2 68.84 20.82L69.93 14.47L65.31 9.97C65.03 9.7 64.93 9.3 65.05 8.94C65.17 8.58 65.48 8.31 65.86 8.26L72.24 7.34L75.09 1.55C75.26 1.21 75.61 1 75.99 1Z" fill="#F5DB76" fill-opacity="1.000000" fill-rule="evenodd"/>
		<path id="Vector" d="M107.99 1C108.37 1 108.72 1.21 108.89 1.55L111.74 7.34L118.12 8.26C118.5 8.31 118.81 8.58 118.93 8.94C119.04 9.3 118.95 9.7 118.67 9.97L114.05 14.47L115.14 20.82C115.2 21.2 115.05 21.58 114.74 21.8C114.43 22.02 114.03 22.05 113.69 21.87L108 18.87L102.29 21.87C101.95 22.05 101.54 22.02 101.24 21.8C100.93 21.58 100.77 21.2 100.84 20.82L101.93 14.47L97.31 9.97C97.03 9.7 96.93 9.3 97.05 8.94C97.17 8.58 97.48 8.31 97.86 8.26L104.24 7.34L107.09 1.55C107.26 1.21 107.61 1 107.99 1Z" fill="#F5DB76" fill-opacity="1.000000" fill-rule="evenodd"/>
		<path id="Vector" d="M139.99 1C140.37 1 140.72 1.21 140.89 1.55L143.74 7.34L150.12 8.26C150.5 8.31 150.81 8.58 150.93 8.94C151.04 9.3 150.95 9.7 150.67 9.97L146.05 14.47L147.14 20.82C147.2 21.2 147.05 21.58 146.74 21.8C146.43 22.02 146.03 22.05 145.69 21.87L140 18.87L134.29 21.87C133.95 22.05 133.54 22.02 133.24 21.8C132.93 21.58 132.77 21.2 132.84 20.82L133.93 14.47L129.31 9.97C129.03 9.7 128.93 9.3 129.05 8.94C129.17 8.58 129.48 8.31 129.86 8.26L136.24 7.34L139.09 1.55C139.26 1.21 139.61 1 139.99 1Z" fill="#F5DB76" fill-opacity="1.000000" fill-rule="evenodd"/>
	</g>
</svg>
